<svg width="102" height="36" viewBox="0 0 102 36" fill="none" xmlns="http://www.w3.org/2000/svg">
<path d="M77 20C77 24.1421 73.6421 27.5 69.5 27.5C65.3579 27.5 62 24.1421 62 20C62 15.8579 65.3579 12.5 69.5 12.5C73.6421 12.5 77 15.8579 77 20ZM65.8851 20C65.8851 21.9965 67.5035 23.6149 69.5 23.6149C71.4965 23.6149 73.1149 21.9965 73.1149 20C73.1149 18.0035 71.4965 16.3851 69.5 16.3851C67.5035 16.3851 65.8851 18.0035 65.8851 20Z" fill="#C9AEEB"/>
<path d="M65 20C65 21.6544 64.453 23.2623 63.4442 24.5735C62.4353 25.8847 61.0213 26.8255 59.4222 27.2495C57.8231 27.6735 56.1287 27.5569 54.6027 26.9178C53.0768 26.2787 51.805 25.153 50.9853 23.716C50.1656 22.279 49.8441 20.6112 50.0707 18.9725C50.2974 17.3337 51.0595 15.8159 52.2385 14.6553C53.4174 13.4947 54.947 12.7564 56.5891 12.5555C58.2313 12.3546 59.8937 12.7023 61.3177 13.5444L59.2949 16.965C58.6254 16.569 57.8438 16.4056 57.0718 16.5C56.2997 16.5945 55.5806 16.9416 55.0263 17.4872C54.4721 18.0329 54.1138 18.7465 54.0072 19.5169C53.9006 20.2874 54.0518 21.0714 54.4372 21.747C54.8225 22.4226 55.4205 22.9519 56.1379 23.2523C56.8553 23.5528 57.6519 23.6076 58.4037 23.4083C59.1555 23.2089 59.8203 22.7666 60.2946 22.1502C60.7689 21.5337 61.0261 20.7778 61.0261 20H65Z" fill="#7DCFCF"/>
<path d="M65.5336 19.5C65.5336 20.6226 65.3204 21.7342 64.9061 22.7714C64.5 23.5 64.2655 23.7062 63.5 24.5L62.5 23.5C61.5 22.5 61.0001 21.0086 61 20.5057C61 20.5057 61.0003 20.0053 61.0003 19.5H65.5336Z" fill="url(#paint0_linear_2066_9296)"/>
<path d="M78.4996 27.5V13.612H82.2236L82.7556 15.46C83.0729 14.9373 83.5956 14.4333 84.3236 13.948C85.0516 13.4627 85.9289 13.22 86.9556 13.22C88.0569 13.22 88.9343 13.416 89.5876 13.808C90.2596 14.2 90.7543 14.7787 91.0716 15.544C91.6129 14.7787 92.2943 14.2 93.1156 13.808C93.9556 13.416 94.8609 13.22 95.8316 13.22C97.6049 13.22 98.8276 13.724 99.4996 14.732C100.172 15.7213 100.508 17.1587 100.508 19.044V27.5H96.2516V20.108C96.2516 19.4547 96.2143 18.8573 96.1396 18.316C96.0649 17.7747 95.8783 17.3453 95.5796 17.028C95.2809 16.692 94.7863 16.524 94.0956 16.524C93.2369 16.524 92.6116 16.832 92.2196 17.448C91.8276 18.0453 91.6316 18.9507 91.6316 20.164V27.5H87.3476V20.108C87.3476 19.4547 87.3103 18.8573 87.2356 18.316C87.1796 17.7747 87.0023 17.3453 86.7036 17.028C86.4236 16.692 85.9476 16.524 85.2756 16.524C84.3983 16.524 83.7543 16.8413 83.3436 17.476C82.9516 18.1107 82.7556 19.0347 82.7556 20.248V27.5H78.4996Z" fill="#FFF8FF"/>
<path d="M1.40781 27.5V13.612H4.76781L5.52381 16.16C5.95315 15.04 6.54115 14.256 7.28781 13.808C8.03448 13.36 8.93981 13.164 10.0038 13.22V17.476C9.77981 17.4387 9.58381 17.42 9.41581 17.42C9.24781 17.4013 9.06115 17.392 8.85581 17.392C7.82915 17.392 7.03581 17.6347 6.47581 18.12C5.93448 18.6053 5.66381 19.3987 5.66381 20.5V27.5H1.40781ZM18.7138 27.836C17.2204 27.836 15.8951 27.5467 14.7378 26.968C13.5991 26.3707 12.7031 25.5213 12.0498 24.42C11.4151 23.3187 11.0978 22.0027 11.0978 20.472C11.0978 18.9973 11.4338 17.7187 12.1058 16.636C12.7964 15.5533 13.7018 14.7133 14.8218 14.116C15.9604 13.5187 17.2018 13.22 18.5458 13.22C20.0764 13.22 21.3831 13.584 22.4658 14.312C23.5671 15.0213 24.3978 16.0107 24.9578 17.28C25.5178 18.5307 25.7511 19.9773 25.6578 21.62H15.3818C15.4564 22.5907 15.8111 23.3187 16.4458 23.804C17.0991 24.2893 17.8178 24.532 18.6018 24.532C19.2551 24.532 19.8151 24.4387 20.2818 24.252C20.7671 24.0467 21.1404 23.7947 21.4018 23.496L24.7898 24.728C24.0618 25.792 23.1471 26.576 22.0458 27.08C20.9631 27.584 19.8524 27.836 18.7138 27.836ZM15.3818 19.1H21.7098C21.6911 18.204 21.3831 17.532 20.7858 17.084C20.1884 16.6173 19.4791 16.384 18.6578 16.384C17.8551 16.384 17.1364 16.5987 16.5018 17.028C15.8858 17.4573 15.5124 18.148 15.3818 19.1ZM30.913 27.5L25.957 13.612H30.353L33.321 23.076L36.289 13.612H40.685L35.701 27.5H30.913ZM46.6202 11.316C45.9295 11.316 45.3322 11.0733 44.8282 10.588C44.3428 10.084 44.1002 9.48667 44.1002 8.796C44.1002 8.08667 44.3428 7.48933 44.8282 7.004C45.3322 6.51867 45.9295 6.276 46.6202 6.276C47.3295 6.276 47.9268 6.51867 48.4122 7.004C48.8975 7.48933 49.1402 8.08667 49.1402 8.796C49.1402 9.48667 48.8975 10.084 48.4122 10.588C47.9268 11.0733 47.3295 11.316 46.6202 11.316ZM44.4642 27.5V16.86H41.8322V13.612H48.7482V27.5H44.4642Z" fill="#FFF8FF"/>
<defs>
<linearGradient id="paint0_linear_2066_9296" x1="61" y1="22" x2="65.5336" y2="22" gradientUnits="userSpaceOnUse">
<stop stop-color="#009CE6"/>
</linearGradient>
</defs>
</svg>
